{
  "accessors": [
    {
      "bufferView": 2,
      "componentType": 5126,
      "count": 1206,
      "max": [
        1.8824443817138672,
        11.826581954956055,
        2.210777997970581
      ],
      "min": [
        -1.8824446201324463,
        -0.0055678412318229675,
        -1.0640385150909424
      ],
      "type": "VEC3"
    },
    {
      "bufferView": 2,
      "byteOffset": 14472,
      "componentType": 5126,
      "count": 1206,
      "max": [
        0.9999874830245972,
        0.9995896220207214,
        0.9997096061706543
      ],
      "min": [
        -0.9999874234199524,
        -1.0,
        -0.9999971985816956
      ],
      "type": "VEC3"
    },
    {
      "bufferView": 1,
      "componentType": 5126,
      "count": 1206,
      "max": [
        0.9936820864677429,
        0.9929550290107727
      ],
      "min": [
        0.010219000279903412,
        0.01115196943283081
      ],
      "type": "VEC2"
    },
    {
      "bufferView": 1,
      "byteOffset": 9648,
      "componentType": 5126,
      "count": 1206,
      "max": [
        0.9936820864677429,
        0.9929550290107727
      ],
      "min": [
        0.010219000279903412,
        0.01115196943283081
      ],
      "type": "VEC2"
    },
    {
      "bufferView": 0,
      "componentType": 5125,
      "count": 4740,
      "type": "SCALAR"
    },
    {
      "bufferView": 2,
      "byteOffset": 28944,
      "componentType": 5126,
      "count": 1165,
      "max": [
        4.242963790893555,
        10.491033554077148,
        2.1430258750915527
      ],
      "min": [
        -4.242969512939453,
        3.9717512130737305,
        -1.0717142820358276
      ],
      "type": "VEC3"
    },
    {
      "bufferView": 2,
      "byteOffset": 42924,
      "componentType": 5126,
      "count": 1165,
      "max": [
        0.9998202919960022,
        0.9833808541297913,
        0.9993870258331299
      ],
      "min": [
        -0.9998202919960022,
        -0.9968234896659851,
        -0.999832272529602
      ],
      "type": "VEC3"
    },
    {
      "bufferView": 1,
      "byteOffset": 19296,
      "componentType": 5126,
      "count": 1165,
      "max": [
        0.9880344867706299,
        0.9884217381477356
      ],
      "min": [
        0.030157534405589104,
        0.0143965482711792
      ],
      "type": "VEC2"
    },
    {
      "bufferView": 0,
      "byteOffset": 18960,
      "componentType": 5125,
      "count": 3738,
      "type": "SCALAR"
    }
  ],
  "asset": {
    "extras": {
      "author": "Oleg Shuldiakov (https://sketchfab.com/olegshuldiakov)",
      "license": "CC-BY-4.0 (http://creativecommons.org/licenses/by/4.0/)",
      "source": "https://sketchfab.com/3d-models/mummy-character-with-bandages-egyptian-clothing-f955540e5d5f4805b8a96588475478de",
      "title": "Mummy Character With Bandages Egyptian Clothing"
    },
    "generator": "Sketchfab-16.53.0",
    "version": "2.0"
  },
  "bufferViews": [
    {
      "buffer": 0,
      "byteLength": 33912,
      "name": "floatBufferViews",
      "target": 34963
    },
    {
      "buffer": 0,
      "byteLength": 28616,
      "byteOffset": 33912,
      "byteStride": 8,
      "name": "floatBufferViews",
      "target": 34962
    },
    {
      "buffer": 0,
      "byteLength": 56904,
      "byteOffset": 62528,
      "byteStride": 12,
      "name": "floatBufferViews",
      "target": 34962
    }
  ],
  "buffers": [
    {
      "byteLength": 119432,
      "uri": "scene.bin"
    }
  ],
  "extensionsUsed": [
    "KHR_materials_specular"
  ],
  "images": [
    {
      "uri": "textures/mummy03_01_baseColor.png"
    },
    {
      "uri": "textures/mummy03_02_baseColor.png"
    }
  ],
  "materials": [
    {
      "alphaMode": "BLEND",
      "doubleSided": true,
      "extensions": {
        "KHR_materials_specular": {
          "specularColorFactor": [
            1.0,
            1.0,
            1.0
          ],
          "specularFactor": 0.21790542599748874
        }
      },
      "name": "mummy03_01",
      "pbrMetallicRoughness": {
        "baseColorTexture": {
          "index": 0
        },
        "metallicFactor": 0.1630481159561629,
        "roughnessFactor": 0.6236179005497922
      }
    },
    {
      "doubleSided": true,
      "extensions": {
        "KHR_materials_specular": {
          "specularColorFactor": [
            1.0,
            1.0,
            1.0
          ],
          "specularFactor": 0.22400068266874718
        }
      },
      "name": "mummy03_02",
      "pbrMetallicRoughness": {
        "baseColorTexture": {
          "index": 1
        },
        "metallicFactor": 0.1630481159561629,
        "roughnessFactor": 0.8186661140300618
      }
    }
  ],
  "meshes": [
    {
      "name": "mummy03_mummy03_01_0",
      "primitives": [
        {
          "attributes": {
            "NORMAL": 1,
            "POSITION": 0,
            "TEXCOORD_0": 2,
            "TEXCOORD_1": 3
          },
          "indices": 4,
          "material": 0,
          "mode": 4
        }
      ]
    },
    {
      "name": "mummy03_mummy03_02_0",
      "primitives": [
        {
          "attributes": {
            "NORMAL": 6,
            "POSITION": 5,
            "TEXCOORD_0": 7
          },
          "indices": 8,
          "material": 1,
          "mode": 4
        }
      ]
    }
  ],
  "nodes": [
    {
      "children": [
        1
      ],
      "matrix": [
        1.0,
        0.0,
        0.0,
        0.0,
        0.0,
        2.220446049250313e-16,
        -1.0,
        0.0,
        0.0,
        1.0,
        2.220446049250313e-16,
        0.0,
        0.0,
        0.0,
        0.0,
        1.0
      ],
      "name": "Sketchfab_model"
    },
    {
      "children": [
        2
      ],
      "matrix": [
        0.009999999776482582,
        0.0,
        0.0,
        0.0,
        0.0,
        0.0,
        0.009999999776482582,
        0.0,
        0.0,
        -0.009999999776482582,
        0.0,
        0.0,
        0.0,
        0.0,
        0.0,
        1.0
      ],
      "name": "mummy03.fbx"
    },
    {
      "children": [
        3
      ],
      "name": "RootNode"
    },
    {
      "children": [
        4,
        5
      ],
      "name": "mummy03"
    },
    {
      "mesh": 0,
      "name": "mummy03_mummy03_01_0"
    },
    {
      "mesh": 1,
      "name": "mummy03_mummy03_02_0"
    }
  ],
  "samplers": [
    {
      "magFilter": 9729,
      "minFilter": 9987,
      "wrapS": 10497,
      "wrapT": 10497
    }
  ],
  "scene": 0,
  "scenes": [
    {
      "name": "Sketchfab_Scene",
      "nodes": [
        0
      ]
    }
  ],
  "textures": [
    {
      "sampler": 0,
      "source": 0
    },
    {
      "sampler": 0,
      "source": 1
    }
  ]
}
